<?xml version="1.0" standalone="no"?><!DOCTYPE svg PUBLIC "-//W3C//DTD SVG 1.1//EN" "http://www.w3.org/Graphics/SVG/1.1/DTD/svg11.dtd"><svg t="1643200421471" class="icon" viewBox="0 0 1024 1024" version="1.1" xmlns="http://www.w3.org/2000/svg" p-id="2785" xmlns:xlink="http://www.w3.org/1999/xlink" width="200" height="200"><defs><style type="text/css"></style></defs><path d="M894.171429 614.4c-3.657143-16.457143-12.8-31.085714-27.428572-38.4l-109.714286-71.314286c1.828571-14.628571 3.657143-32.914286 3.657143-51.2h-40.228571v27.428572l-23.771429-16.457143c1.828571-14.628571 3.657143-34.742857 3.657143-54.857143h-40.228571c0 10.971429 0 21.942857 1.828571 31.085714l-23.771428-14.628571c1.828571-14.628571 3.657143-34.742857 3.657142-54.857143h-40.228571c0 10.971429 0 21.942857 1.828571 31.085714l-31.085714-20.114285c-5.485714-3.657143-10.971429-10.971429-10.971428-18.285715V274.285714c0-31.085714-9.142857-62.171429-27.428572-87.771428l-9.142857-14.628572c-5.485714-9.142857-20.114286-9.142857-25.6 0l-9.142857 10.971429c-18.285714 25.6-27.428571 56.685714-27.428572 87.771428v89.6c0 7.314286-3.657143 14.628571-10.971428 18.285715L420.571429 402.285714c0-9.142857 1.828571-20.114286 1.828571-31.085714h-40.228571c0 20.114286 1.828571 38.4 3.657142 54.857143l-23.771428 14.628571c0-10.971429 1.828571-20.114286 1.828571-31.085714h-40.228571c0 20.114286 1.828571 40.228571 3.657143 54.857143l-23.771429 14.628571v-27.428571h-40.228571c0 18.285714 1.828571 36.571429 3.657143 51.2l-111.542858 71.314286c-12.8 9.142857-23.771429 23.771429-27.428571 38.4L124.342857 640l102.4-40.228571c1.828571 3.657143 5.485714 7.314286 7.314286 10.971428 3.657143-3.657143 7.314286-10.971429 10.971428-16.457143l12.8-5.485714c1.828571 5.485714 5.485714 9.142857 7.314286 10.971429 3.657143-3.657143 7.314286-10.971429 10.971429-18.285715l12.8-5.485714c1.828571 5.485714 5.485714 9.142857 7.314285 10.971429 5.485714-3.657143 7.314286-10.971429 10.971429-18.285715l12.8-5.485714c1.828571 5.485714 5.485714 9.142857 7.314286 12.8 5.485714-3.657143 7.314286-10.971429 10.971428-20.114286l10.971429-3.657143c1.828571 5.485714 5.485714 10.971429 9.142857 12.8 5.485714-3.657143 9.142857-12.8 10.971429-20.114285l10.971428-3.657143c1.828571 5.485714 5.485714 10.971429 9.142857 12.8 5.485714-3.657143 9.142857-12.8 10.971429-21.942857l21.942857-9.142857h42.057143c0 109.714286 16.457143 210.285714 16.457143 210.285714l-106.057143 74.971428c-12.8 9.142857-20.114286 23.771429-20.114286 40.228572v10.971428l137.142857-36.571428 23.771429 29.257143 23.771428-29.257143 137.142858 36.571428v-10.971428c0-16.457143-7.314286-31.085714-20.114286-40.228572l-106.057143-74.971428s16.457143-102.4 16.457143-210.285714h42.057143l21.942857 9.142857c1.828571 9.142857 7.314286 16.457143 10.971428 21.942857 3.657143-1.828571 5.485714-7.314286 9.142858-12.8l10.971428 3.657143c1.828571 9.142857 7.314286 16.457143 10.971429 20.114285 3.657143-1.828571 5.485714-7.314286 9.142857-12.8l10.971428 3.657143c1.828571 7.314286 7.314286 14.628571 10.971429 20.114286 3.657143-1.828571 5.485714-7.314286 7.314286-12.8l12.8 5.485714c1.828571 7.314286 5.485714 14.628571 10.971428 18.285715 1.828571-1.828571 5.485714-7.314286 7.314286-10.971429l12.8 5.485714c1.828571 7.314286 5.485714 14.628571 10.971429 18.285715 1.828571-1.828571 5.485714-7.314286 7.314285-10.971429l12.8 5.485714c1.828571 7.314286 5.485714 12.8 10.971429 16.457143 3.657143-3.657143 5.485714-7.314286 7.314286-10.971428l102.4 40.228571c-7.314286 0-12.8-25.6-12.8-25.6z" fill="#FFD700" p-id="2786"></path></svg>